<!DOCTYPE svg PUBLIC "-//W3C//DTD SVG 1.1//EN" "http://www.w3.org/Graphics/SVG/1.1/DTD/svg11.dtd">
<!-- Uploaded to: SVG Repo, www.svgrepo.com, Transformed by: SVG Repo Mixer Tools -->
<svg fill="#ff8c00" width="800px" height="800px" viewBox="0 0 32 32" version="1.1" xmlns="http://www.w3.org/2000/svg">
<g id="SVGRepo_bgCarrier" stroke-width="0"/>
<g id="SVGRepo_tracerCarrier" stroke-linecap="round" stroke-linejoin="round" stroke="#ffffff" stroke-width="0.192"> <title>lock</title> <path d="M4 30.016q0 0.832 0.576 1.408t1.44 0.576h20q0.8 0 1.408-0.576t0.576-1.408v-14.016q0-0.832-0.576-1.408t-1.408-0.576v-4q0-2.048-0.8-3.872t-2.144-3.2-3.2-2.144-3.872-0.8q-2.72 0-5.024 1.344t-3.616 3.648-1.344 5.024v4q-0.832 0-1.44 0.576t-0.576 1.408v14.016zM8 28v-9.984h16v9.984h-16zM10.016 14.016v-4q0-2.496 1.728-4.256t4.256-1.76 4.256 1.76 1.76 4.256v4h-12z"/> </g>
<g id="SVGRepo_iconCarrier"> <title>lock</title> <path d="M4 30.016q0 0.832 0.576 1.408t1.44 0.576h20q0.8 0 1.408-0.576t0.576-1.408v-14.016q0-0.832-0.576-1.408t-1.408-0.576v-4q0-2.048-0.8-3.872t-2.144-3.2-3.2-2.144-3.872-0.8q-2.72 0-5.024 1.344t-3.616 3.648-1.344 5.024v4q-0.832 0-1.44 0.576t-0.576 1.408v14.016zM8 28v-9.984h16v9.984h-16zM10.016 14.016v-4q0-2.496 1.728-4.256t4.256-1.76 4.256 1.76 1.76 4.256v4h-12z"/> </g>
</svg>